<svg width="132" height="67" viewBox="0 0 132 67" fill="none" xmlns="http://www.w3.org/2000/svg">
<path fill-rule="evenodd" clip-rule="evenodd" d="M122.858 10.4253L125.49 11.5373C120.919 13.3444 116.902 15.2905 113.301 17.3755L109.561 16.8195C113.024 14.8734 117.872 12.5104 122.858 10.4253ZM132 11.9544L108.038 0C106.237 0.278008 104.298 0.556017 102.636 0.834025L118.842 7.92324C118.565 8.20125 118.288 8.20125 117.872 8.34025L100.558 1.25104C97.234 1.80705 93.9098 2.64108 91.1396 3.3361L106.653 8.34025C105.96 8.61826 105.683 8.75726 104.991 9.17427L88.2308 4.17012C83.2445 5.56017 78.1196 7.22822 71.3326 10.0083L103.051 15.5685C102.22 15.9855 101.666 16.4025 100.697 16.8195L67.0388 11.8154C59.0052 15.2905 49.7251 20.5726 42.2455 25.4378H75.3494C73.8258 26.4108 72.5792 27.2448 70.7786 28.4959L36.1511 29.6079C29.7796 34.195 23.2697 39.6162 19.5299 42.9523C15.7901 46.1494 4.98636 57.1307 0 67L40.4449 56.4357C38.6443 59.0768 37.1207 61.9959 36.2896 64.4979L80.1973 50.4585C79.7817 40.1722 89.7544 30.9979 96.4029 25.4378H101.943C93.3557 32.805 89.3389 41.0062 90.447 47.2614L104.159 42.9523C100.974 34.334 109.977 19.1826 132 11.9544Z" fill="#CC3300"/>
</svg>
