<svg width="67" height="67" viewBox="0 0 67 67" fill="none" xmlns="http://www.w3.org/2000/svg">
<g clip-path="url(#clip0_484_168)">
<path d="M30.1651 30.1646L13.4995 13.499" stroke="#AFAFAF" stroke-width="2.5" stroke-miterlimit="10"/>
<path d="M10.1688 18.0026L18.5016 9.66982L8.50229 4.67016L5.16918 8.00327L10.1688 18.0026ZM60.0815 22.9183C63.3493 19.6518 64.3812 14.7641 62.7133 10.4551L57.9737 15.1948H51.3074V8.52856L56.0471 3.78888C51.7367 2.11966 46.8477 3.15159 43.58 6.42071C40.3122 9.68982 39.2816 14.5802 40.9535 18.8892L19.3882 40.4544C15.0792 38.7825 10.1888 39.8131 6.91973 43.0809C3.65061 46.3487 2.61868 51.2377 4.2879 55.5481L9.02759 50.8084H15.6938V57.4746L10.9541 62.2143C15.2632 63.8822 20.1508 62.8503 23.4173 59.5825C26.6837 56.3174 27.717 51.4324 26.0518 47.1233L47.6237 25.5514C51.9314 27.2167 56.8164 26.1847 60.0815 22.9183Z" stroke="#AFAFAF" stroke-width="2.5" stroke-linejoin="round"/>
<path d="M32.8315 41.8411L51.5103 60.5199C52.3556 61.3652 53.5008 61.8398 54.6968 61.8398C55.8913 61.8398 57.0366 61.3652 57.8819 60.5199L60.5217 57.8801C61.367 57.0348 61.8416 55.8895 61.8416 54.6949C61.8416 53.5003 61.367 52.3551 60.5217 51.5098L41.8429 32.8311" stroke="#AFAFAF" stroke-width="2.5" stroke-linejoin="round"/>
</g>
<defs>
<clipPath id="clip0_484_168">
<rect width="60" height="60" fill="white" transform="translate(3.5 3.5)"/>
</clipPath>
</defs>
</svg>
