<svg width="67" height="67" viewBox="0 0 67 67" fill="none" xmlns="http://www.w3.org/2000/svg">
<g clip-path="url(#clip0_484_161)">
<path d="M63.5 41L60.7293 38.8027C57.5773 36.304 56 35.0533 56 33.5C56 31.9467 57.576 30.6973 60.7293 28.1973L63.5 26M3.5 26L6.27067 28.1973C9.424 30.6973 11 31.9467 11 33.5C11 35.0533 9.424 36.3027 6.27067 38.8027L3.5 41.0013M42.0733 63.5L42.5933 59.9707C43.188 55.9533 43.484 53.9453 44.84 53.1613C46.196 52.3787 48.0813 53.1253 51.8533 54.6187L55.1667 55.932M24.9267 3.5L24.4067 7.02933C23.8133 11.0453 23.516 13.0547 22.16 13.8387C20.804 14.6213 18.9187 13.8747 15.1467 12.3813L11.8333 11.068M10.1667 55.94L13.7347 54.6253C17.7947 53.1293 19.8253 52.3813 21.284 53.164C22.7427 53.948 23.0613 55.956 23.6973 59.9707L24.2573 63.5M56.8333 11.06L53.2653 12.3747C49.2053 13.8707 47.1747 14.6187 45.716 13.8347C44.2573 13.052 43.9387 11.044 43.3027 7.02933L42.7427 3.5" stroke="#009DFF" stroke-width="2.5" stroke-linecap="round" stroke-linejoin="round"/>
<path d="M56.8332 33.5H10.1665M45.1665 53.5L21.8332 13.5M45.1665 13.5L21.8332 53.5" stroke="#009DFF" stroke-width="2.5" stroke-linejoin="round"/>
</g>
<defs>
<clipPath id="clip0_484_161">
<rect width="60" height="60" fill="white" transform="translate(3.5 3.5)"/>
</clipPath>
</defs>
</svg>
